<?xml version="1.0" standalone="no"?>
<!DOCTYPE svg PUBLIC "-//W3C//DTD SVG 20010904//EN"
 "http://www.w3.org/TR/2001/REC-SVG-20010904/DTD/svg10.dtd">
<svg version="1.0" xmlns="http://www.w3.org/2000/svg"
 width="200.000000pt" height="200.000000pt" viewBox="0 0 200.000000 200.000000"
 preserveAspectRatio="xMidYMid meet">
<metadata>
Created by potrace 1.11, written by Peter Selinger 2001-2013
</metadata>
<g transform="translate(0.000000,200.000000) scale(0.100000,-0.100000)"
fill="#000000" stroke="none">
<path d="M789 1978 c-34 -37 -61 -119 -80 -243 -13 -88 -13 -264 0 -330 13
-68 58 -204 77 -235 11 -17 13 -19 9 -5 -4 11 -11 34 -17 50 -5 17 -11 73 -13
125 -4 94 11 182 45 265 l13 30 19 -43 c55 -123 56 -291 4 -447 -5 -13 -2 -11
7 5 27 47 75 195 87 273 12 74 9 276 -5 337 -3 14 -8 38 -10 54 -17 91 -69
186 -101 186 -7 0 -23 -10 -35 -22z"/>
<path d="M1535 1741 c-151 -55 -341 -197 -442 -331 -39 -53 -119 -190 -111
-190 3 0 19 22 37 50 43 67 140 152 214 189 77 38 147 63 147 52 0 -4 -17 -34
-39 -67 -66 -102 -153 -178 -264 -230 -69 -33 -18 -22 83 17 133 51 252 132
356 241 92 98 135 162 155 230 16 57 -40 73 -136 39z"/>
<path d="M94 1496 c-3 -14 -4 -36 0 -49 11 -46 90 -152 171 -233 122 -121 232
-190 379 -240 88 -30 106 -30 39 1 -106 48 -193 124 -264 229 -21 32 -39 62
-39 66 0 11 96 -23 160 -56 67 -36 161 -121 206 -189 44 -64 43 -54 0 24 -88
155 -170 243 -322 344 -120 80 -196 115 -269 123 -52 6 -54 6 -61 -20z"/>
<path d="M998 1183 c7 -3 16 -2 19 1 4 3 -2 6 -13 5 -11 0 -14 -3 -6 -6z"/>
<path d="M1243 1146 c-86 -15 -84 -22 6 -18 124 5 278 -42 367 -113 l29 -23
-59 -7 c-134 -17 -278 13 -390 80 -31 18 -56 32 -56 30 0 -9 144 -107 197
-133 204 -103 573 -141 648 -66 18 18 18 19 3 47 -32 61 -175 135 -358 184
-108 29 -282 37 -387 19z"/>
<path d="M924 1091 c-56 -34 -73 -80 -50 -135 18 -42 51 -66 94 -66 89 0 138
81 97 160 -27 52 -92 71 -141 41z"/>
<path d="M1160 952 c0 -5 7 -9 15 -9 8 0 12 4 9 9 -3 4 -9 8 -15 8 -5 0 -9 -4
-9 -8z"/>
<path d="M748 943 c7 -3 16 -2 19 1 4 3 -2 6 -13 5 -11 0 -14 -3 -6 -6z"/>
<path d="M1163 895 c0 -22 2 -30 4 -17 2 12 2 30 0 40 -3 9 -5 -1 -4 -23z"/>
<path d="M1220 918 c0 -3 12 -18 26 -34 88 -100 135 -208 150 -342 l7 -66 -35
29 c-84 74 -169 213 -183 303 -10 60 -24 52 -18 -10 20 -209 142 -462 285
-595 58 -52 78 -63 105 -52 85 32 -20 411 -168 599 -52 67 -169 183 -169 168z"/>
<path d="M480 844 c-264 -47 -511 -191 -435 -254 38 -32 172 -43 309 -26 176
23 277 57 412 141 82 51 119 88 51 49 -56 -31 -142 -62 -194 -69 -57 -8 -174
-6 -208 3 l-30 9 55 35 c60 37 139 73 186 83 16 4 72 10 124 14 52 5 84 9 70
10 -14 1 -34 5 -45 7 -50 11 -227 10 -295 -2z"/>
<path d="M858 823 c7 -3 16 -2 19 1 4 3 -2 6 -13 5 -11 0 -14 -3 -6 -6z"/>
<path d="M1044 808 l-19 -23 23 19 c21 18 27 26 19 26 -2 0 -12 -10 -23 -22z"/>
<path d="M884 798 l-19 -23 23 19 c21 18 27 26 19 26 -2 0 -12 -10 -23 -22z"/>
<path d="M938 716 c-118 -117 -195 -244 -253 -421 -51 -157 -49 -285 4 -285
46 0 124 73 205 195 107 160 159 295 172 450 3 33 7 65 9 72 2 7 1 14 -3 17
-4 3 -9 -5 -9 -16 -9 -109 -108 -286 -209 -371 -22 -18 -22 -18 -18 19 14 153
65 275 158 378 25 28 30 36 23 36 -2 0 -37 -33 -79 -74z"/>
</g>
</svg>
